<svg id="Energisa" xmlns="http://www.w3.org/2000/svg" width="243.444" height="79.288" viewBox="0 0 243.444 79.288">
  <g id="Grupo_1376" data-name="Grupo 1376" transform="translate(0)">
    <path id="Caminho_2134" data-name="Caminho 2134" d="M288.021,1068.271c-17.875,0-32.963.007-32.963.007s37.792,12.441,21.349,37.7c0,0,27.954-19.571,11.614-37.707" transform="translate(-250.608 -1068.271)" fill="#0097c2"/>
    <path id="Caminho_2135" data-name="Caminho 2135" d="M276.49,1084.959c-18.622,7.7-34.478,27.833.846,56.329h30.032s-60.535-35.76-30.878-56.329" transform="translate(-250.139 -1062)" fill="#d4d823"/>
    <path id="Caminho_2136" data-name="Caminho 2136" d="M253.595,1104.425a37.128,37.128,0,0,0,2.984,29.549H277.23c-10.306-4.65-24.062-17.613-23.636-29.549" transform="translate(-251.824 -1054.685)" fill="#d4d823"/>
    <path id="Caminho_2137" data-name="Caminho 2137" d="M301.63,1092.519c-8.145,0-12.752,6.291-12.752,14.72,0,9.832,4.774,14.323,13.483,14.323a25.565,25.565,0,0,0,9.663-1.794l-.561-4.774a19.333,19.333,0,0,1-8.147,1.794c-5.562,0-8.421-2.919-8.259-9.383h17.809a27.84,27.84,0,0,0,.169-2.806c0-6.63-3.426-12.081-11.405-12.081m-6.461,10.68c.505-3.768,2.866-6.239,6.237-6.239,3.541,0,5.727,2.415,5.616,6.239Z" transform="translate(-237.9 -1059.16)" fill="#0097c2"/>
    <path id="Caminho_2138" data-name="Caminho 2138" d="M325.471,1092.519a10.205,10.205,0,0,0-9.72,6.068l-.055-.059a36.943,36.943,0,0,0,.389-5.448h-5.727v27.928h6.009v-13.491c0-5.562,3.089-10,7.305-10,3.2,0,4.159,2.026,4.159,5.507v17.983h5.949v-19.553c0-4.947-1.965-8.937-8.31-8.937" transform="translate(-229.829 -1059.16)" fill="#0097c2"/>
    <path id="Caminho_2139" data-name="Caminho 2139" d="M343.856,1092.519c-8.147,0-12.758,6.291-12.758,14.72,0,9.832,4.779,14.323,13.489,14.323a25.563,25.563,0,0,0,9.662-1.794l-.563-4.774a19.341,19.341,0,0,1-8.146,1.794c-5.561,0-8.427-2.919-8.261-9.383h17.81a27.753,27.753,0,0,0,.167-2.806c0-6.63-3.423-12.081-11.4-12.081m-6.463,10.68c.508-3.768,2.867-6.239,6.238-6.239,3.538,0,5.726,2.415,5.617,6.239Z" transform="translate(-222.035 -1059.16)" fill="#0097c2"/>
    <path id="Caminho_2140" data-name="Caminho 2140" d="M357.866,1099.278h-.117a37.408,37.408,0,0,0,.561-6.184h-5.73v27.928h6.009v-11.35c0-8.373,2.7-12.251,8.259-11.239l.281-5.9c-5.222-.506-8.033,2.977-9.263,6.745" transform="translate(-213.963 -1059.173)" fill="#0097c2"/>
    <path id="Caminho_2141" data-name="Caminho 2141" d="M383.778,1115.906a16.227,16.227,0,0,1-4.112.537c-5.247,0-8.871-3.3-8.871-9.308,0-6.38,4.219-9.681,9.468-9.681A20.961,20.961,0,0,1,388,1098.97l1.028-5.082a30.68,30.68,0,0,0-8.82-1.3c-9.79,0-15.633,6.6-15.633,15.04,0,9.2,6.114,13.961,14.553,13.961a28.659,28.659,0,0,0,10.493-1.9v-13.253h-5.841Z" transform="translate(-209.456 -1059.135)" fill="#0097c2"/>
    <rect id="Retângulo_1956" data-name="Retângulo 1956" width="6.009" height="27.927" transform="translate(185.883 33.922)" fill="#0097c2"/>
    <path id="Caminho_2142" data-name="Caminho 2142" d="M435.1,1121.048c-.112-2.358-.169-5.224-.169-7.642V1101.97c0-5.73-2.361-9.437-10.9-9.437a27.91,27.91,0,0,0-9.834,1.851l.561,5.115a17.1,17.1,0,0,1,8.319-2.25c4.371,0,5.832,2.351,5.836,5.822-5.8,0-11.479,1.42-14.426,4.416a8.67,8.67,0,0,0-1.856,2.767,8.174,8.174,0,0,0,.79,7.94c1.723,2.573,3.642,3.481,6.844,3.418,4.437-.092,7.919-2.475,9.269-5.789l.059.059a37.043,37.043,0,0,0-.282,5.165Zm-6.179-13.367c0,3.99-2.75,9.211-6.854,9.211a5.087,5.087,0,0,1-2.4-.476,4.615,4.615,0,0,1-.122-7.209,8.45,8.45,0,0,1,3.141-1.4,24.872,24.872,0,0,1,6.234-.688Z" transform="translate(-191.656 -1059.154)" fill="#0097c2"/>
    <path id="Caminho_2143" data-name="Caminho 2143" d="M401.638,1100.173c.008-2.113,2.863-3.068,6.221-3.075a15.184,15.184,0,0,1,5.5.984l.27-4.608a15.859,15.859,0,0,0-5.29-.811c-7.681.005-12.949,3.3-12.965,8.07-.032,9.544,13.65,7.411,13.631,12.953-.008,2.277-2.049,2.664-5.35,2.664a22.209,22.209,0,0,1-7.524-1.719l-.184,5.328a24.158,24.158,0,0,0,7.351,1.383c7.569-.005,12.063-3.057,12.082-8.212.033-9.157-13.762-7.633-13.74-12.957" transform="translate(-197.883 -1059.105)" fill="#0097c2"/>
  </g>
  <text id="GRUPO" transform="translate(51.425 27.06)" fill="#0097c2" font-size="12" font-family="SegoeUI, Segoe UI" letter-spacing="0.1em"><tspan x="0" y="0">GRUPO</tspan></text>
</svg>
